Coordinates
version=1
nRows=10
nColumns=22
inDegrees=yes

Units are S.I. units (second, meters, Newtons, ...)
If the header above contains a line with 'inDegrees', this indicates whether rotational values are in degrees (yes) or radians (no).

endheader
time	pelvis_tilt	pelvis_list	pelvis_rotation	pelvis_tx	pelvis_ty	pelvis_tz	hip_flexion_r	hip_adduction_r	hip_rotation_r	knee_angle_r	ankle_angle_r	subtalar_angle_r	hip_flexion_l	hip_adduction_l	hip_rotation_l	knee_angle_l	ankle_angle_l	subtalar_angle_l	lumbar_extension	lumbar_bending	lumbar_rotation
      1.82000000	      1.94043570	     -0.50946756	     60.95739629	      0.76899007	      1.04984368	      0.66823505	     21.60166610	     -0.24183866	      3.29796737	     -9.71299141	      9.39467189	     11.12976078	    -12.47004614	      7.63152856	     22.51706031	    -15.60216298	     15.07111320	    -12.20614300	     -4.41773051	     -1.42945465	    -13.06059857
      1.83000000	      2.13895551	     -0.54029804	     61.64910466	      0.77494330	      1.04870507	      0.65915782	     21.33516938	      0.16603494	      4.24323576	     -9.31041720	      9.34167498	     11.23153311	    -12.88310027	      7.28948193	     22.76839531	    -16.20036209	     15.07657936	    -12.01809297	     -4.30185947	     -1.24255218	    -13.04941028
      1.84000000	      2.35670741	     -0.54131396	     62.32912479	      0.78083742	      1.04768781	      0.64992551	     21.14275858	      0.56196945	      5.08969836	     -9.42638205	      9.14756758	     11.14106983	    -13.29572581	      6.95023919	     23.03304953	    -16.86077430	     15.02251685	    -11.71673404	     -4.22101530	     -1.03598948	    -13.04689336
      1.85000000	      2.56991295	     -0.56024408	     62.99079447	      0.78665509	      1.04675036	      0.64059919	     21.07849964	      0.95865783	      5.84525181	    -10.01717488	      8.76326686	     10.89130155	    -13.62358912	      6.62208076	     23.28379202	    -17.62653886	     14.88218429	    -11.32362287	     -4.11790570	     -0.81009480	    -13.02948475
      1.86000000	      2.78335246	     -0.59790515	     63.63077568	      0.79239499	      1.04593373	      0.63121068	     21.13049488	      1.36533346	      6.50486635	    -11.01572882	      8.18863901	     10.57968836	    -13.85370894	      6.30643273	     23.50008640	    -18.51787677	     14.63437083	    -10.82766595	     -3.99990004	     -0.56246298	    -12.98927314
      1.87000000	      3.03235212	     -0.66983737	     64.26720472	      0.79803815	      1.04528774	      0.62170446	     21.23874926	      1.81001504	      7.09782336	    -12.26680102	      7.48031023	     10.34778227	    -13.97917422	      5.96469619	     23.66259032	    -19.54928613	     14.23828529	    -10.32478530	     -3.86227107	     -0.23973802	    -12.95833193
      1.88000000	      3.22639768	     -0.72564538	     64.89386428	      0.80355332	      1.04481920	      0.61218956	     21.43059976	      2.18849258	      7.55759877	    -13.76153758	      6.78191671	     10.06427971	    -13.97322397	      5.71343626	     23.76654294	    -20.76709633	     13.71386694	     -9.35782208	     -3.72941994	      0.02016394	    -12.89539233
      1.89000000	      3.47299626	     -0.80322785	     65.52890082	      0.80896268	      1.04460249	      0.60254312	     21.59673834	      2.59596608	      7.89712416	    -15.28731477	      6.10459024	      9.95541800	    -13.85418007	      5.42773471	     23.75651192	    -22.16129976	     13.01202401	     -8.30860805	     -3.59646583	      0.35992323	    -12.83842834
      1.90000000	      3.72061889	     -0.87331854	     66.17927745	      0.81424367	      1.04464906	      0.59276610	     21.71416969	      2.96245254	      8.10399449	    -16.77516618	      5.59108246	      9.93790591	    -13.61546904	      5.16392274	     23.62788088	    -23.73500309	     12.05630610	     -6.92852829	     -3.46779350	      0.70787327	    -12.79732291
      1.91000000	      3.97327096	     -0.92861375	     66.85220555	      0.81937079	      1.04496361	      0.58285308	     21.74523767	      3.27807561	      8.15517005	    -18.14896233	      5.25626265	      9.97067135	    -13.25742361	      4.91430996	     23.35777721	    -25.48779716	     10.84628928	     -5.19600728	     -3.35147985	      1.06348460	    -12.75786176
